# xmcd CD database file
#
# Track frame offsets:
#	150
#	32305
#	60075
#	82247
#	104860
#	137687
#	165147
#	193190
#	220522
#	243480
#
# Disc length: 3755 seconds
#
# Revision: 0
# Processed by: cddbd v1.5.1PL0 Copyright (c) Steve Scherf et al.
# Submitted via: CDex 1.51
#
DISCID=7e0ea90a
DTITLE=Various Lounge - Cool Jazz for Warm Days
DYEAR=2004
DGENRE=Jazz
TTITLE0=Grant Green - Samba de Orpheus
TTITLE1=Bobby Hutcherson - Nascimento
TTITLE2=Curtis Fuller - Five Spot After Dark '93
TTITLE3=Pat Martino - Dreamsville
TTITLE4=James Moody - Morning Glory
TTITLE5=Cannonball Adderly - Bohemia After Dark
TTITLE6=Red Garland - Please Send Me Someone to Love
TTITLE7=Kenny Burrell - Tenderly
TTITLE8=Clifford Jordan - Blues for Muse
TTITLE9=Johnny Lytle - Little Sunflower
EXTD=YEAR: 2004
EXTT0=
EXTT1=
EXTT2=
EXTT3=
EXTT4=
EXTT5=
EXTT6=
EXTT7=
EXTT8=
EXTT9=
PLAYORDER=
